<svg id="Layer_1" data-name="Layer 1" xmlns="http://www.w3.org/2000/svg" viewBox="0 0 100 100"><title>LogoOnly</title><path d="M58.21,80.49a30.53,30.53,0,0,1-6.8-60.56,29.56,29.56,0,0,1,6.8-.43V.86a48,48,0,0,0-7.86.51L48.57,9.7A42.18,42.18,0,0,0,43,11.24L37.66,4.92c-4.89,1.46-10.53,6-10.53,6L29.71,19a41,41,0,0,0-4.55,4.68L17.33,21c-3.46,3.74-6,10.54-6,10.54l6.35,5.65a41.19,41.19,0,0,0-1.2,4.52L8.33,43C7.05,48,8,55.15,8,55.15l8.27,2s0,.07,0,.11a41.9,41.9,0,0,0,1.62,6.21l-6.36,5.29c1.41,4.9,5.92,10.58,5.92,10.58l8.13-2.51A41.17,41.17,0,0,0,30,81.16L27.1,88.94c3.68,3.52,10.43,6.17,10.43,6.17l5.78-6.25a40.65,40.65,0,0,0,6.31,1.66l1.52,8.13a27.49,27.49,0,0,0,7.07.46V80.49" style="fill:#ff7d00"/><path d="M51.3,19.28A31.21,31.21,0,1,0,78,73l-.89-1a29.9,29.9,0,1,1-2-45.7l.8-1a31.26,31.26,0,0,0-24.52-6" style="fill:#ff7d00"/><path d="M50.46,14.59A36,36,0,1,0,89.07,65.92l-1.17-.58A34.66,34.66,0,1,1,85.41,30.4l1.08-.74a36.06,36.06,0,0,0-36-15.07" style="fill:#ff7d00"/><path d="M49.57,9.62A41,41,0,1,0,84,80.7l-.87-1A39.71,39.71,0,1,1,49.8,10.91a39.32,39.32,0,0,1,30.62,7.16L81.2,17a40.66,40.66,0,0,0-31.63-7.4" style="fill:#ff7d00"/><path d="M83.9,31.53a2.94,2.94,0,1,0,2.93-2.93,2.94,2.94,0,0,0-2.93,2.93m1.31,0a1.63,1.63,0,1,1,1.62,1.63A1.63,1.63,0,0,1,85.21,31.53Z" style="fill:#ff7d00"/><path d="M79.35,18.72a2.93,2.93,0,1,0,2.93-2.93,2.93,2.93,0,0,0-2.93,2.93m1.31,0a1.62,1.62,0,1,1,1.62,1.62A1.62,1.62,0,0,1,80.66,18.72Z" style="fill:#ff7d00"/><path d="M74.08,27A2.93,2.93,0,1,0,77,24,2.93,2.93,0,0,0,74.08,27m1.31,0A1.62,1.62,0,1,1,77,28.6,1.62,1.62,0,0,1,75.39,27Z" style="fill:#ff7d00"/><path d="M75.93,71A2.93,2.93,0,1,0,78.86,68,2.93,2.93,0,0,0,75.93,71m1.31,0a1.62,1.62,0,1,1,1.62,1.62A1.63,1.63,0,0,1,77.24,71Z" style="fill:#ff7d00"/><path d="M82.05,79A2.94,2.94,0,1,0,85,76,2.94,2.94,0,0,0,82.05,79m1.31,0A1.63,1.63,0,1,1,85,80.57,1.63,1.63,0,0,1,83.36,79Z" style="fill:#ff7d00"/><path d="M86.47,63.86a2.93,2.93,0,1,0,2.93-2.94,2.93,2.93,0,0,0-2.93,2.94m1.31,0a1.62,1.62,0,1,1,1.62,1.62A1.62,1.62,0,0,1,87.78,63.86Z" style="fill:#ff7d00"/><path d="M54.07,43.43c-11.88,2.45-8.37-9.46.78-10.11C65.62,32.57,76.9,38.86,80.7,51.9a25.72,25.72,0,0,0-7.33-19.36,24.76,24.76,0,0,0-35.49.08,25.61,25.61,0,0,0-6.71,12.46c-.24,1.14.49,5.32,1.75,6.92,3.45,4.39,10.92,10.82,24,8.4,11.88-2.44,8.37,9.47-.78,10.11A24.84,24.84,0,0,1,30.7,53.28,25.6,25.6,0,0,0,38,68.79a24.76,24.76,0,0,0,35.5-.08,25.61,25.61,0,0,0,6.18-10.44,10.05,10.05,0,0,0-1.17-5.9C75.2,48,67.66,40.92,54.07,43.43" style="fill:#69d1f2"/></svg>